<svg class="current" id="svg" xmlns="http://www.w3.org/2000/svg" xmlns:xlink="http://www.w3.org/1999/xlink" width="current" height="current" viewBox="0, 0, 400,400"><g id="svgg"><path id="path0" d="M180.078 0.485 C 143.591 5.660,117.347 15.156,90.929 32.744 C 4.476 90.300,-24.925 200.241,21.965 290.625 C 93.253 428.039,282.344 437.860,367.590 308.575 C 446.265 189.256,375.191 27.862,232.712 2.297 C 223.429 0.631,187.714 -0.598,180.078 0.485 M223.148 26.983 C 340.978 42.429,408.827 168.278,357.495 276.172 C 291.048 415.834,83.599 403.392,34.764 256.816 C -6.609 132.640,93.883 10.038,223.148 26.983 M226.753 179.886 L 162.504 244.136 135.549 217.189 L 108.594 190.243 99.418 199.419 L 90.242 208.594 122.269 240.676 C 156.652 275.117,156.515 275.000,162.500 275.000 C 168.621 275.000,166.539 276.924,240.044 203.364 L 309.386 133.971 300.194 124.803 L 291.003 115.636 226.753 179.886 " stroke="none" fill="current" fill-rule="evenodd"></path></g></svg>