<svg id="svg" class="current" xmlns="http://www.w3.org/2000/svg" xmlns:xlink="http://www.w3.org/1999/xlink" width="current" height="current" viewBox="0, 0, 400,400"><g id="svgg"><path id="path0" d="M180.078 0.485 C 143.591 5.660,117.347 15.156,90.929 32.744 C 4.476 90.300,-24.925 200.241,21.965 290.625 C 93.253 428.039,282.344 437.860,367.590 308.575 C 446.265 189.256,375.191 27.862,232.712 2.297 C 223.429 0.631,187.714 -0.598,180.078 0.485 M223.148 26.983 C 340.978 42.429,408.827 168.278,357.495 276.172 C 291.048 415.834,83.599 403.392,34.764 256.816 C -6.609 132.640,93.883 10.038,223.148 26.983 M124.801 124.801 L 115.624 133.977 148.629 166.988 L 181.634 200.000 148.629 233.012 L 115.624 266.023 124.801 275.199 L 133.977 284.376 166.988 251.371 L 200.000 218.366 233.012 251.371 L 266.023 284.376 275.199 275.199 L 284.376 266.023 251.371 233.012 L 218.366 200.000 251.371 166.988 L 284.376 133.977 275.199 124.801 L 266.023 115.624 233.012 148.629 L 200.000 181.634 166.988 148.629 L 133.977 115.624 124.801 124.801 " stroke="none" fill="current" fill-rule="evenodd"></path></g></svg>