<svg id="svg" xmlns="http://www.w3.org/2000/svg" xmlns:xlink="http://www.w3.org/1999/xlink" viewBox="0, 0, 400,380.70175438596493"><g id="svgg"><path id="path0" d="M164.697 46.930 C 144.070 66.952,114.722 95.570,99.481 110.526 C 84.239 125.482,71.015 137.982,70.095 138.304 C 69.174 138.626,68.421 140.007,68.421 141.374 C 68.421 144.814,97.388 144.982,99.474 141.555 C 100.246 140.288,124.041 116.890,152.352 89.561 L 203.826 39.871 217.264 52.961 C 224.655 60.160,248.638 83.163,270.561 104.078 L 310.420 142.105 325.385 142.105 C 342.789 142.105,343.272 141.319,332.093 131.176 C 327.551 127.056,320.229 120.132,315.821 115.789 C 311.414 111.447,298.354 98.787,286.799 87.655 C 275.244 76.523,252.542 54.615,236.352 38.971 C 220.161 23.326,205.853 10.526,204.558 10.526 C 203.262 10.526,185.325 26.908,164.697 46.930 M186.782 78.558 C 178.065 86.974,160.499 103.657,147.747 115.633 C 134.995 127.608,124.561 138.463,124.561 139.755 C 124.561 141.685,138.875 142.105,204.515 142.105 C 267.610 142.105,284.348 141.643,283.901 139.912 C 283.103 136.830,206.042 63.103,203.727 63.207 C 203.124 63.234,195.499 70.142,186.782 78.558 M226.081 114.474 L 231.986 121.053 204.192 121.053 L 176.398 121.053 190.287 107.082 L 204.175 93.112 212.175 100.503 C 216.575 104.569,222.833 110.855,226.081 114.474 M14.035 164.904 L 14.035 173.684 204.482 173.684 L 394.929 173.684 394.394 165.351 L 393.860 157.018 203.947 156.571 L 14.035 156.125 14.035 164.904 M70.625 182.437 C 66.396 184.212,59.666 193.921,59.656 198.263 C 59.651 200.283,62.248 201.043,70.614 201.468 C 93.896 202.652,93.253 202.768,98.559 196.413 C 106.068 187.418,105.211 184.838,94.298 183.598 C 89.232 183.022,82.719 182.154,79.825 181.668 C 76.930 181.182,72.790 181.528,70.625 182.437 M167.368 188.421 C 162.005 193.784,161.404 195.377,161.404 204.211 C 161.404 215.808,161.933 216.036,169.231 207.594 C 177.271 198.293,178.954 200.575,178.909 220.718 L 178.871 237.719 173.208 240.351 C 166.297 243.562,163.537 260.313,169.539 262.616 C 171.289 263.287,172.892 262.904,173.287 261.719 C 175.908 253.855,178.947 260.636,178.947 274.349 C 178.947 288.715,178.838 289.095,174.123 291.108 C 167.899 293.766,159.649 304.603,159.649 310.119 C 159.649 313.519,160.287 314.147,162.719 313.143 C 174.237 308.390,182.394 308.945,193.024 315.206 C 197.793 318.016,198.673 318.089,199.999 315.789 C 200.834 314.342,203.544 310.439,206.022 307.115 C 208.499 303.792,210.526 300.079,210.526 298.864 C 210.526 296.170,195.917 289.474,190.040 289.474 C 182.966 289.474,184.634 270.384,192.017 266.857 C 202.378 261.908,210.569 266.975,215.815 281.579 C 221.552 297.551,225.485 304.851,232.120 311.842 C 242.179 322.442,242.105 322.801,242.105 263.220 L 242.105 208.895 246.053 206.914 C 248.224 205.824,251.772 202.836,253.939 200.273 L 257.877 195.614 257.886 203.070 C 257.896 211.578,258.315 211.831,264.434 207.018 C 274.425 199.158,280.720 204.655,280.664 221.191 C 280.627 232.111,280.455 232.537,275.053 235.088 C 268.554 238.156,265.804 244.850,267.446 253.603 C 268.608 259.797,272.508 261.735,274.319 257.018 C 274.874 255.570,276.537 254.386,278.015 254.386 C 283.039 254.386,281.832 287.280,276.722 289.608 C 268.554 293.329,259.855 312.842,267.707 309.829 C 277.038 306.249,285.950 308.161,296.746 316.059 C 299.183 317.843,301.363 316.605,310.756 308.104 L 321.880 298.038 323.233 303.259 C 324.683 308.855,334.243 318.100,337.502 317.058 C 343.575 315.116,351.038 294.737,345.676 294.737 C 339.443 294.737,338.596 289.277,338.596 249.053 L 338.596 210.156 342.982 204.943 C 348.602 198.265,348.945 192.161,343.622 193.553 C 340.979 194.244,338.357 193.013,334.716 189.371 C 328.205 182.860,328.366 182.840,320.175 191.228 C 311.501 200.111,310.526 200.023,310.526 190.351 C 310.526 183.099,310.169 182.456,306.140 182.456 L 301.754 182.456 301.754 235.965 C 301.754 273.156,301.176 289.474,299.857 289.474 C 298.533 289.474,298.114 275.829,298.469 244.298 C 299.027 194.943,298.428 191.368,288.526 184.880 C 281.537 180.301,268.891 182.486,262.776 189.329 C 258.037 194.633,257.895 194.672,257.895 190.675 C 257.895 186.895,257.143 186.548,248.684 186.434 C 243.618 186.365,237.119 186.034,234.241 185.698 C 227.444 184.905,214.123 202.162,220.750 203.175 C 222.706 203.475,225.250 204.856,226.403 206.246 C 227.556 207.635,229.587 208.772,230.917 208.772 C 235.736 208.772,234.149 231.283,229.169 233.551 C 223.620 236.080,217.951 233.026,216.458 226.704 C 208.234 191.882,183.329 172.460,167.368 188.421 M124.905 206.473 L 113.971 228.947 114.557 211.404 C 114.879 201.754,115.767 192.478,116.531 190.789 C 118.628 186.153,111.969 186.804,107.556 191.667 C 98.255 201.915,98.052 202.893,97.580 239.773 C 97.335 258.906,96.503 276.338,95.731 278.509 C 94.576 281.757,94.951 282.456,97.847 282.456 C 103.658 282.456,108.851 276.797,112.249 266.761 L 115.459 257.280 118.922 268.552 C 120.827 274.752,122.951 283.222,123.643 287.375 L 124.902 294.926 118.174 292.115 C 98.838 284.036,87.051 285.957,73.390 299.412 C 63.613 309.043,61.847 315.152,69.737 312.054 C 79.213 308.333,99.061 309.201,105.027 313.596 C 112.063 318.781,112.062 318.781,119.975 308.402 L 126.793 299.461 130.012 306.078 C 137.028 320.503,143.493 320.973,150.745 307.583 C 157.175 295.711,157.403 293.407,152.219 292.666 C 146.911 291.907,141.488 281.562,136.750 263.158 C 132.731 247.549,127.699 235.841,124.559 234.794 C 119.670 233.165,131.885 208.560,137.022 209.689 C 143.309 211.070,147.905 208.524,152.475 201.131 C 158.520 191.349,157.520 186.295,149.561 186.413 C 145.943 186.467,141.375 185.945,139.411 185.254 C 136.236 184.137,134.624 186.495,124.905 206.473 M321.053 217.759 C 321.053 228.046,321.040 228.070,315.789 228.070 C 309.300 228.070,307.543 210.463,313.592 206.040 C 318.596 202.381,321.053 206.240,321.053 217.759 M86.328 210.818 C 79.616 215.067,75.439 222.252,75.439 229.547 C 75.439 233.549,74.481 234.948,71.175 235.777 C 63.998 237.579,61.404 241.621,61.404 251.003 C 61.404 259.518,65.880 263.426,69.298 257.895 C 74.852 248.908,77.533 271.784,72.741 287.281 C 71.127 292.501,76.623 292.685,83.054 287.625 C 89.659 282.430,91.572 273.090,92.919 239.474 C 94.265 205.894,94.244 205.805,86.328 210.818 M193.675 218.984 C 198.268 228.100,207.018 251.674,207.018 254.929 C 207.018 256.312,203.462 257.018,196.491 257.018 L 185.965 257.018 185.965 232.791 C 185.965 206.565,186.730 205.195,193.675 218.984 M321.053 247.550 L 321.053 257.753 315.793 257.386 C 307.528 256.807,307.528 237.826,315.793 237.532 L 321.053 237.346 321.053 247.550 M233.306 259.517 C 233.288 271.197,232.751 275.514,231.546 273.684 C 230.219 271.670,221.032 245.082,221.058 243.330 C 221.061 243.139,223.824 242.923,227.198 242.851 L 233.333 242.719 233.306 259.517 M320.707 277.115 C 321.218 287.997,318.045 294.479,312.100 294.698 C 309.791 294.783,308.707 267.793,310.959 266.325 C 317.252 262.224,320.159 265.442,320.707 277.115 M29.825 332.456 L 29.825 342.105 204.386 342.105 L 378.947 342.105 378.947 332.456 L 378.947 322.807 204.386 322.807 L 29.825 322.807 29.825 332.456 M12.281 364.912 L 12.281 373.684 201.754 373.684 L 391.228 373.684 391.228 364.912 L 391.228 356.140 201.754 356.140 L 12.281 356.140 12.281 364.912 " stroke="none" fill-rule="evenodd"></path></g></svg>