<svg id="svg" class="current" xmlns="http://www.w3.org/2000/svg" xmlns:xlink="http://www.w3.org/1999/xlink" width="current" height="current" viewBox="0, 0, 400,400"><g id="svgg"><path id="path0" d="M80.225 51.173 C 66.631 54.910,54.776 66.891,51.135 80.571 C 49.465 86.847,49.465 313.153,51.135 319.429 C 54.849 333.382,66.722 345.171,80.859 348.940 C 86.629 350.478,313.371 350.478,319.141 348.940 C 326.390 347.007,332.195 343.586,337.891 337.891 C 343.586 332.195,347.007 326.390,348.940 319.141 C 349.767 316.039,349.983 302.113,349.991 251.513 L 350.000 187.792 347.778 185.664 C 344.931 182.936,340.878 182.237,337.634 183.915 C 332.599 186.519,332.812 183.544,332.813 251.104 C 332.813 321.787,333.222 317.662,325.442 325.442 C 322.727 328.156,319.987 329.989,316.939 331.130 L 312.441 332.812 200.000 332.812 L 87.559 332.812 83.061 331.130 C 76.993 328.859,71.141 323.007,68.870 316.939 L 67.188 312.441 67.188 200.000 L 67.188 87.559 68.870 83.061 C 71.141 76.993,76.993 71.141,83.061 68.870 C 87.525 67.200,88.012 67.188,148.896 67.188 C 216.456 67.187,213.481 67.401,216.085 62.366 C 217.763 59.122,217.064 55.069,214.336 52.222 L 212.208 50.000 148.096 50.070 C 97.513 50.125,83.191 50.358,80.225 51.173 M270.117 50.844 C 266.723 52.821,265.306 59.800,267.626 63.112 C 270.348 66.999,271.692 67.188,296.625 67.188 L 319.889 67.188 276.799 110.352 C 238.332 148.885,233.650 153.839,233.158 156.532 C 231.997 162.877,237.123 168.003,243.468 166.842 C 246.161 166.350,251.115 161.668,289.648 123.201 L 332.813 80.111 332.813 103.375 C 332.813 128.308,333.001 129.652,336.888 132.374 C 340.276 134.747,347.321 133.234,349.196 129.731 C 349.715 128.761,350.000 115.164,350.000 91.398 L 350.000 54.567 347.716 52.284 L 345.433 50.000 308.459 50.024 C 284.801 50.039,270.992 50.334,270.117 50.844 " stroke="none" fill="current" fill-rule="evenodd"></path></g></svg>