<svg id="svg" xmlns="http://www.w3.org/2000/svg" xmlns:xlink="http://www.w3.org/1999/xlink" viewBox="0, 0, 400,400"><g id="svgg"><path id="path0" d="M180.078 0.485 C 143.591 5.660,117.347 15.156,90.929 32.744 C 4.476 90.300,-24.925 200.241,21.965 290.625 C 93.253 428.039,282.344 437.860,367.590 308.575 C 446.265 189.256,375.191 27.862,232.712 2.297 C 223.429 0.631,187.714 -0.598,180.078 0.485 M223.148 26.983 C 340.978 42.429,408.827 168.278,357.495 276.172 C 291.048 415.834,83.599 403.392,34.764 256.816 C -6.609 132.640,93.883 10.038,223.148 26.983 M187.503 152.148 C 187.506 224.634,187.120 219.761,193.157 223.442 C 195.643 224.958,197.221 224.994,260.352 224.997 L 325.000 225.000 325.000 212.500 L 325.000 200.000 268.750 200.000 L 212.500 200.000 212.500 143.750 L 212.500 87.500 200.000 87.500 L 187.500 87.500 187.503 152.148 " stroke="none" fill-rule="evenodd"></path></g></svg>